<?xml version="1.0" encoding="UTF-8" standalone="no"?>
<!-- Generator: Adobe Illustrator 25.4.1, SVG Export Plug-In . SVG Version: 6.00 Build 0)  -->

<svg
   version="1.1"
   id="Layer_1"
   x="0px"
   y="0px"
   viewBox="0 0 612 612.00002"
   xml:space="preserve"
   sodipodi:docname="GWJ-Logo-NoTitle.svg"
   width="612"
   height="612"
   inkscape:version="1.2 (dc2aedaf03, 2022-05-15)"
   xmlns:inkscape="http://www.inkscape.org/namespaces/inkscape"
   xmlns:sodipodi="http://sodipodi.sourceforge.net/DTD/sodipodi-0.dtd"
   xmlns="http://www.w3.org/2000/svg"
   xmlns:svg="http://www.w3.org/2000/svg"><defs
   id="defs102" /><sodipodi:namedview
   id="namedview100"
   pagecolor="#505050"
   bordercolor="#eeeeee"
   borderopacity="1"
   inkscape:showpageshadow="0"
   inkscape:pageopacity="0"
   inkscape:pagecheckerboard="0"
   inkscape:deskcolor="#505050"
   showgrid="false"
   inkscape:zoom="0.77152999"
   inkscape:cx="414.76029"
   inkscape:cy="401.79903"
   inkscape:window-width="1916"
   inkscape:window-height="1033"
   inkscape:window-x="0"
   inkscape:window-y="18"
   inkscape:window-maximized="1"
   inkscape:current-layer="Layer_1" />
<style
   type="text/css"
   id="style69">
	.st0{fill:#F0624B;}
	.st1{fill:#F1634C;}
</style>
<path
   class="st0"
   d="m 530.66464,292.03478 c 5.59331,-12.46229 7.654,-25.31709 5.00454,-33.65799 -2.64946,-8.3409 -5.49518,-12.36416 -4.02326,-18.84063 1.47193,-6.37833 24.13955,-12.95292 33.65799,-15.60239 15.40614,-4.21951 29.04597,-7.35962 41.11574,-8.14464 5.69144,-0.39252 7.26149,2.74759 3.63075,5.59331 -5.78957,4.5139 -18.44811,14.32672 -32.2842,23.45265 -20.90132,13.83608 -16.97619,32.18607 -47.10156,47.19969 z m -22.47137,-20.80319 c -1.57005,12.75667 -16.77993,38.27002 -16.77993,38.27002 0,0 -1.07941,-4.31764 -1.76631,-6.77085 -0.6869,-2.45321 -2.55133,-2.94385 -2.55133,-2.94385 0,0 -5.78957,22.66763 -12.85481,28.16281 -15.70052,12.06978 -25.61147,7.26149 -41.21386,41.312 -3.23824,7.16336 -0.49064,22.27511 -2.84572,25.61147 1.17754,3.72888 2.4532,10.4016 0.0981,19.52753 -7.75214,-2.35508 -22.27512,-3.72888 -22.27512,-3.72888 0,0 11.08849,5.49518 18.15373,9.12593 -0.6869,3.72887 -11.08849,25.90586 -13.73796,28.16281 -11.67726,-4.41577 -25.90586,-7.16336 -25.90586,-7.16336 0,0 10.10721,6.37833 21.19571,12.75667 -1.66818,4.21951 -15.6024,21.1957 -18.93876,22.96201 -9.71469,-8.53716 -22.96201,-13.24731 -22.96201,-13.24731 0,0 6.96711,7.16336 19.52752,18.25185 -13.73795,10.59785 -30.51788,7.35962 -43.27456,4.71016 -1.37379,-0.29439 -5.78956,-8.92967 -5.78956,-8.92967 0,0 -3.72888,8.53715 -12.75668,2.35507 -5.69143,-3.92513 -10.99036,-11.38287 -10.69598,-19.135 0.29439,-8.24278 6.67273,-18.93876 26.69089,-29.63474 12.06977,-6.57459 17.85934,-20.99944 16.97619,-37.77938 0.78502,-5.00454 4.61203,-31.40104 6.86898,-43.47081 2.84571,-14.9155 9.81282,-43.96146 22.66762,-61.8208 10.69598,-14.81737 26.29837,-21.8826 53.67616,-30.9104 30.51789,-10.10721 49.16225,-10.59786 65.25529,-12.26604 0.0981,-0.19625 5.29892,9.51844 3.23823,26.59276 z m -65.25529,26.29837 c 7.55588,-7.94839 10.30347,-17.85934 10.30347,-17.85934 0,0 -25.02271,5.29893 -35.32617,6.86898 -17.85935,2.74759 -19.92004,7.35962 -26.20025,15.79865 -4.90641,6.57459 -5.39705,11.38288 -3.53262,21.98073 0.58877,3.23823 2.7476,4.80828 4.71016,8.24277 2.15882,3.92513 2.64946,11.28475 3.92513,11.18662 1.96257,-0.19625 9.32218,-7.85026 17.66309,-10.10721 14.22859,-4.12139 17.56495,-24.72832 28.45719,-36.1112 z m -33.36361,34.63928 c -7.06523,0 -12.75667,-6.5746 -12.75667,-14.62111 0,-8.04652 5.8877,-13.05106 12.75667,-14.62111 12.75668,-2.84572 11.28475,5.49518 12.75668,14.62111 1.27566,7.94839 -5.69144,14.62111 -12.75668,14.62111 z m -1.37379,-10.79411 c 0,-0.58877 -0.49064,-1.07941 -1.07941,-1.07941 -0.58877,0 -1.07941,0.49064 -1.07941,1.07941 0,0.58877 0.49064,1.07941 1.07941,1.07941 0.58877,0 1.07941,-0.49064 1.07941,-1.07941 z m 4.80828,0.19626 c 0,-0.98129 -0.58877,-1.76631 -1.27566,-1.76631 -0.6869,0 -1.27567,0.78502 -1.27567,1.76631 0,0.98128 0.58877,1.7663 1.27567,1.7663 0.68689,0 1.27566,-0.88315 1.27566,-1.7663 z m 0,-5.10267 c 0,-2.0607 -1.37379,-3.82701 -3.04197,-3.82701 -1.66818,0 -3.04198,1.66819 -3.04198,3.82701 0,2.06069 1.3738,3.827 3.04198,3.827 1.66818,0 3.04197,-1.66818 3.04197,-3.827 z M 81.335358,292.03478 c -5.59331,-12.46229 -7.654,-25.31709 -5.00454,-33.65799 2.55133,-8.3409 5.49518,-12.36416 4.02326,-18.84063 -1.47193,-6.37833 -24.13955,-12.95292 -33.65799,-15.60239 -15.40614,-4.21951 -29.04597,-7.35962 -41.1157396,-8.14464 -5.69143999,-0.39252 -7.26149,2.74759 -3.63075,5.59331 5.78957,4.5139 18.4481096,14.32672 32.2841996,23.45265 20.90132,13.83608 16.97619,32.18607 47.10156,47.19969 z m 25.611482,-47.5922 c 15.9949,1.66818 34.7374,2.25695 65.25528,12.26603 27.37779,9.0278 42.98018,16.09303 53.67616,30.9104 12.95293,17.95747 19.82191,46.90531 22.66763,61.8208 2.35508,12.06978 6.08395,38.46628 6.86898,43.47082 -0.88316,16.87806 4.90641,31.30291 16.97618,37.77938 19.92004,10.7941 26.3965,21.49008 26.69089,29.63473 0.29438,7.75213 -5.00454,15.20988 -10.69598,19.13501 -9.0278,6.18208 -12.75667,-2.35508 -12.75667,-2.35508 0,0 -4.41578,8.63529 -5.78957,8.92967 -12.75667,2.64946 -29.63473,5.8877 -43.27456,-4.71015 12.56041,-11.0885 19.52752,-18.25186 19.52752,-18.25186 0,0 -13.14919,4.71016 -22.96201,13.24731 -3.33636,-1.7663 -17.27057,-18.74249 -18.93875,-22.96201 11.08849,-6.37833 21.1957,-12.75667 21.1957,-12.75667 0,0 -14.2286,2.74759 -25.90586,7.16336 -2.64946,-2.25695 -13.05106,-24.43393 -13.73796,-28.16281 7.06524,-3.63074 18.15373,-9.12592 18.15373,-9.12592 0,0 -14.52298,1.37379 -22.27511,3.72887 -2.35508,-9.12593 -1.17754,-15.79865 0.0981,-19.52752 -2.35508,-3.33636 0.39251,-18.44812 -2.84572,-25.61148 -15.6024,-34.0505 -25.51335,-29.24222 -41.21387,-41.31199 -7.06524,-5.49519 -12.8548,-28.16281 -12.8548,-28.16281 0,0 -1.86444,0.49064 -2.55134,2.94384 -0.68689,2.45321 -1.76631,6.77085 -1.76631,6.77085 0,0 -15.20988,-25.51334 -16.77993,-38.27002 -1.96256,-16.87806 3.23824,-26.59275 3.23824,-26.59275 z m 90.57237,89.10045 c 8.24278,2.35508 15.70053,9.91096 17.66309,10.10721 1.27567,0.0981 1.76631,-7.26149 3.92513,-11.18662 1.86444,-3.43449 4.12139,-5.00454 4.71016,-8.24277 1.86443,-10.59785 1.27566,-15.40614 -3.53262,-21.98073 -6.28021,-8.43903 -8.3409,-13.05106 -26.20024,-15.79865 -10.20534,-1.57005 -35.32618,-6.86898 -35.32618,-6.86898 0,0 2.7476,9.91096 10.30347,17.85935 10.89224,11.481 14.2286,32.08793 28.45719,36.11119 z m -7.85026,-15.9949 c 1.47193,-9.12593 0,-17.46683 12.75668,-14.62111 6.86898,1.57005 12.75667,6.57459 12.75667,14.62111 0,8.04651 -5.69144,14.62111 -12.75667,14.62111 -7.06524,0 -14.03234,-6.67272 -12.75668,-14.62111 z m 15.20988,4.90641 c 0.58877,0 1.07941,-0.49064 1.07941,-1.07941 0,-0.58877 -0.49064,-1.07941 -1.07941,-1.07941 -0.58877,0 -1.07941,0.49064 -1.07941,1.07941 0,0.58877 0.49064,1.07941 1.07941,1.07941 z m -4.61202,0.78503 c 0.68689,0 1.27566,-0.78503 1.27566,-1.76631 0,-0.98128 -0.58877,-1.76631 -1.27566,-1.76631 -0.6869,0 -1.27567,0.78503 -1.27567,1.76631 0,0.98128 0.58877,1.76631 1.27567,1.76631 z m 1.7663,-2.94385 c 1.66818,0 3.04198,-1.66818 3.04198,-3.827 0,-2.0607 -1.3738,-3.82701 -3.04198,-3.82701 -1.66818,0 -3.04197,1.66819 -3.04197,3.82701 0,2.15882 1.37379,3.827 3.04197,3.827 z m 143.16913,74.47934 c -3.43449,-5.49518 -10.20534,-6.67272 -20.41068,-7.55587 -9.22405,-0.78503 -18.84062,-0.6869 -18.84062,-0.6869 0,0 -9.61657,0 -18.84063,0.6869 -10.10721,0.78502 -16.97619,2.06069 -20.41068,7.55587 -3.92513,6.28021 -5.69143,19.52753 16.58368,34.24677 1.07941,0.78502 1.76631,-2.35508 -1.57005,-5.59332 -5.29893,-5.10266 -8.04652,-21.58821 -4.71016,-20.70506 8.04652,2.25695 16.58368,16.58368 13.14919,27.18153 -0.88316,2.74759 5.59331,7.85026 8.43903,9.0278 4.5139,1.76631 7.26149,1.76631 7.26149,1.76631 0,0 2.74759,0 7.26149,-1.76631 2.84572,-1.07941 9.32218,-6.18208 8.43903,-9.0278 -3.43449,-10.69598 5.2008,-25.02271 13.14919,-27.18153 3.33636,-0.88315 0.49064,15.6024 -4.71016,20.70506 -3.33636,3.23824 -2.64946,6.28021 -1.57005,5.59332 22.47137,-14.62111 20.70506,-27.96656 16.77993,-34.24677 z M 600.63009,253.66663 c 1.47192,14.52299 -1.47193,28.4572 -4.21952,30.51789 -0.0981,-4.90641 -1.37379,-8.63529 -2.84572,-11.57913 -2.15882,-4.21952 -4.90641,-5.98583 -4.90641,-5.98583 0,0 2.94385,12.36416 -0.39251,49.55477 -2.15883,23.55078 -16.48555,47.19969 -16.48555,47.19969 0,0 0.39251,-9.61657 -3.43449,-21.39196 -3.1401,-9.91095 -10.59785,-16.38742 -10.59785,-16.38742 0,0 5.98582,20.60694 6.77085,29.53661 6.28021,66.43283 -45.8259,101.46461 -45.8259,101.46461 0,0 1.27567,-8.04651 -1.57005,-22.47137 -2.15882,-11.18662 -9.91095,-17.56495 -9.91095,-17.56495 3.92513,7.94839 6.37833,26.49463 0.88315,38.17189 -4.80828,10.10721 -11.18662,14.52298 -21.68634,25.0227 -11.67727,11.57914 -38.07377,22.5695 -38.07377,22.5695 0,0 1.57006,-15.11175 -0.58877,-18.0556 0.19626,3.04198 -6.9671,20.70506 -15.70052,24.92458 -8.04651,3.827 -19.72378,12.56042 -25.21896,22.47137 0.98129,-9.61657 1.86444,-18.25186 3.43449,-25.90586 -11.97165,16.97619 -31.10666,42.19515 -50.53605,54.75557 1.3738,-11.67727 4.31764,-18.34999 0,-26.78902 -2.45321,21.68635 -26.88714,42.58767 -26.88714,42.58767 0,0 5.2008,-23.55079 2.74759,-35.52243 -17.27057,47.39594 -29.63473,56.03123 -29.63473,56.03123 0,0 -12.36416,-8.63529 -29.63474,-56.03123 -2.55133,11.97164 2.74759,35.52243 2.74759,35.52243 0,0 -24.43393,-20.90132 -26.88714,-42.58767 -4.31764,8.34091 -1.37379,15.01363 0,26.78902 -19.42939,-12.56042 -38.66253,-37.77938 -50.53605,-54.75557 1.47193,7.654 2.35508,16.28929 3.43449,25.90586 -5.59331,-9.91095 -17.17244,-18.64437 -25.21896,-22.47137 -8.73342,-4.21952 -15.89678,-21.8826 -15.70052,-24.92458 -2.0607,2.94385 -0.58877,18.0556 -0.58877,18.0556 0,0 -26.3965,-10.99036 -38.07376,-22.5695 -10.59786,-10.49972 -16.87806,-14.91549 -21.68635,-25.0227 -5.593312,-11.67726 -3.04197,-30.2235 0.88316,-38.17189 0,0 -7.752142,6.47646 -9.910962,17.56495 -2.74759,14.52299 -1.57005,22.47137 -1.57005,22.47137 0,0 -52.1061,-35.03178 -45.8259,-101.46461 0.88316,-8.83154 6.77085,-29.53661 6.77085,-29.53661 0,0 -7.35962,6.47647 -10.59785,16.38742 -3.827,11.77539 -3.43449,21.39196 -3.43449,21.39196 0,0 -14.42485,-23.74704 -16.48554,-47.19969 -3.33636,-37.19061 -0.39252,-49.55477 -0.39252,-49.55477 0,0 -2.74759,1.76631 -4.90641,5.98583 -1.47192,2.94384 -2.74759,6.67272 -2.84572,11.57913 -2.74759,-2.06069 -5.6914396,-15.9949 -4.21951,-30.51789 1.17754,-10.99036 4.71015,-13.05105 4.71015,-13.05105 0,0 17.3687,9.32218 26.00399,25.0227 17.07432,31.00853 43.0783,36.89622 50.43792,39.2513 0.88316,-6.67272 -11.67726,-28.35906 -8.83154,-43.66707 2.45321,-13.44357 10.59785,-14.13047 3.53262,-26.69089 -4.21952,-7.55587 -21.8826,-13.63982 -38.17189,-17.85934 -4.02326,-0.88315 -11.97165,-2.64946 -14.62111,-3.23823 -10.00909,-2.25695 -16.38742,-2.64946 -21.29383,-8.83154 -4.5138996,-5.69144 -3.3363696,-11.38288 -3.3363696,-11.38288 0,0 9.9109596,4.21951 20.1162996,-2.45321 13.24731,-8.53716 -2.84572,-22.76575 19.8219,-43.0783 14.03234,-12.56042 32.38233,-9.91096 32.38233,-9.91096 0,0 -11.08849,-7.26149 -24.13955,-6.67272 -12.06978,0.58877 -21.19571,2.94385 -34.14864,18.64437 6.86898,-31.79355 22.37325,-43.0783 38.56441,-51.71359 15.01362,-8.046516 39.153172,-10.499722 55.442462,-9.125927 0,0 -6.08395,-8.144645 -16.97618,-11.677262 -14.915502,-4.808284 -24.630202,-3.532617 -32.087942,-0.883154 5.59331,-10.69598 25.51334,-20.508805 52.891132,-22.176986 32.38232,-1.962565 59.56385,9.420313 59.56385,9.420313 0,0 1.86443,-5.495183 -9.0278,-12.069776 -13.5417,-8.144645 -31.10666,-9.420312 -38.36815,-6.868978 4.80828,-6.083951 25.0227,-16.28929 61.8208,-10.597851 22.66763,3.532617 32.38232,7.555876 32.38232,7.555876 0,0 -0.39251,-6.378337 -5.69144,-10.597852 -5.10266,-4.023258 -11.57913,-5.887695 -17.17244,-6.868978 3.63075,-2.649463 24.63019,-4.808284 45.139,-6.280208 C 276.02182,16 306.14719,16 306.14719,16 c 0,0 30.12538,0 55.93311,1.864437 20.41068,1.471924 41.41012,3.630745 45.139,6.280208 -5.59332,0.883154 -12.06978,2.84572 -17.17245,6.868978 -5.39705,4.219515 -5.69144,10.597852 -5.69144,10.597852 0,0 9.81283,-4.121387 32.38233,-7.555876 36.69996,-5.691439 57.01251,4.415771 61.8208,10.597851 -7.35962,-2.551334 -24.82645,-1.275667 -38.36815,6.868978 -10.89224,6.574593 -9.0278,12.069776 -9.0278,12.069776 0,0 27.18153,-11.382878 59.56385,-9.420313 27.37778,1.668181 47.39595,11.481006 52.89113,22.176986 -7.55588,-2.649463 -17.27057,-4.023259 -32.08794,0.883154 -11.28475,3.630746 -17.3687,11.677262 -17.3687,11.677262 16.28929,-1.373795 40.42884,1.079411 55.44246,9.125927 16.09304,8.63529 31.5973,19.92004 38.56441,51.71359 -12.95293,-15.70052 -22.07886,-18.15373 -34.14863,-18.64437 -13.05106,-0.58877 -24.13956,6.67272 -24.13956,6.67272 0,0 18.34999,-2.64946 32.38233,9.91096 22.66763,20.31255 6.67272,34.54114 19.82191,43.0783 10.30346,6.5746 20.11629,2.45321 20.11629,2.45321 0,0 1.17754,5.69144 -3.33636,11.38288 -4.90642,6.2802 -11.28475,6.57459 -21.29383,8.83154 -2.55134,0.58877 -10.59786,2.35508 -14.62111,3.23823 -16.28929,4.12139 -33.85425,10.20534 -38.17189,17.85934 -7.06524,12.65855 1.07941,13.24732 3.53261,26.69089 2.74759,15.30801 -9.81282,36.99435 -8.83154,43.66707 7.35962,-2.35508 33.36361,-8.24277 50.43792,-39.2513 8.63529,-15.70052 26.00399,-25.0227 26.00399,-25.0227 0,0 3.63075,2.06069 4.71016,13.05105 z M 346.57603,168.00067 h 0.6869 c 2.35508,-9.91096 4.31764,-19.62565 6.47647,-29.34035 2.25695,-9.61657 3.63074,-19.52752 6.67272,-28.94784 2.74759,-9.42031 7.16336,-18.34998 12.65854,-26.592754 5.49519,-8.242773 11.97165,-15.994905 19.52753,-22.569498 l -0.39252,-0.490642 c -8.24277,5.985824 -15.40613,13.149187 -21.78447,21.195704 -6.18208,8.046516 -11.38288,17.17244 -14.91549,26.78901 -3.63075,9.51844 -6.77085,19.33127 -8.14465,29.43848 -1.47192,10.10721 -2.06069,20.31255 -0.78503,30.51789 z m -19.62565,141.99158 0.6869,0.0981 c 4.21952,-18.64437 9.12593,-36.99435 15.01362,-54.95182 5.8877,-17.95747 12.16791,-35.81682 20.90132,-52.59675 8.83155,-16.58367 20.70506,-31.5973 34.05051,-44.94274 13.34544,-13.44357 28.16281,-25.61147 44.25584,-35.81681 l -0.29439,-0.58877 c -16.58367,9.51844 -31.98981,21.09757 -46.2184,34.0505 -14.03234,13.05106 -26.59276,27.96656 -36.40559,44.74649 -9.51844,16.77993 -17.3687,34.63927 -22.56949,53.18551 -2.55134,9.32219 -4.80829,18.64437 -6.37834,28.16281 -1.57005,9.51844 -2.74759,19.03688 -3.04198,28.65345 z M 219.59807,60.648356 c 7.55588,6.574593 14.03234,14.326725 19.52752,22.569499 5.49519,8.242773 9.81283,17.172445 12.65855,26.592755 2.94385,9.42031 4.41577,19.23314 6.67272,28.94784 2.15882,9.71469 4.12139,19.42939 6.47647,29.34035 h 0.68689 c 1.17754,-10.20534 0.58877,-20.41068 -0.68689,-30.51789 -1.3738,-10.10721 -4.5139,-19.92004 -8.14465,-29.43848 -3.53262,-9.61657 -8.73341,-18.742495 -14.91549,-26.789012 -6.37834,-7.948389 -13.5417,-15.20988 -21.78448,-21.195703 z m -49.45664,61.035774 c 16.09304,10.20534 30.9104,22.37324 44.25584,35.81681 13.44358,13.34545 25.21897,28.4572 34.05051,44.94274 8.63529,16.77994 15.01362,34.63928 20.90132,52.59675 5.88769,17.95747 10.79411,36.30745 15.01362,54.95182 l 0.6869,-0.0981 c -0.29439,-9.61657 -1.47193,-19.13501 -3.14011,-28.65345 -1.57005,-9.51844 -3.827,-18.84062 -6.37833,-28.16281 -5.2008,-18.54624 -13.05106,-36.40558 -22.5695,-53.18551 -9.81283,-16.77993 -22.37324,-31.69543 -36.40558,-44.74648 -14.13047,-12.95296 -29.53661,-24.5321 -46.21841,-34.05054 z m -70.161702,49.35851 c 12.266032,2.84572 24.139552,7.06524 34.933662,13.14919 10.99036,5.88769 20.11629,14.42485 29.43847,22.66763 9.32219,8.3409 18.15373,17.27057 27.0834,26.3965 l 0.49064,-0.39252 c -3.04197,-5.69144 -6.57459,-11.08849 -10.49972,-16.19116 -3.827,-5.10267 -8.14464,-10.00908 -12.65854,-14.62111 -9.0278,-9.22405 -19.92004,-16.77993 -31.5973,-22.47137 -11.57914,-5.78957 -24.13955,-9.51844 -36.69997,-11.77539 -12.658542,-2.06069 -25.513352,-2.74759 -38.270022,-1.3738 l 0.0981,0.6869 c 12.75667,-0.39251 25.51335,1.17754 37.68125,3.92513 z M 330.58113,510.86079 c -4.21952,1.17754 -8.24278,1.17754 -12.36416,1.47192 -4.12139,0.0981 -8.14465,0.0981 -12.26603,0 0,0 0,0 0,0 0,0 0,0 0,0 -4.12139,0 -8.14465,0.0981 -12.26604,0 -4.12138,-0.19625 -8.14464,-0.19625 -12.36416,-1.47192 1.3738,1.86444 3.33637,3.04198 5.29893,4.02326 2.06069,0.98128 4.12139,1.76631 6.28021,2.25695 4.31764,1.17754 8.63528,1.57005 13.05106,1.66818 0,0 0,0 0,0 0,0 0,0 0,0 4.31764,0 8.73341,-0.49064 13.05105,-1.66818 2.15883,-0.49064 4.21952,-1.3738 6.28021,-2.25695 1.96257,-0.98128 3.92513,-2.15882 5.29893,-4.02326 z M 511.33337,236.98483 c -18.34998,0.29439 -28.55532,1.27567 -47.69033,4.80828 -28.45719,5.29893 -39.74194,10.49973 -60.83952,19.92004 -19.92003,8.92967 -32.87296,24.92458 -38.76066,48.37723 -1.07941,4.12139 -2.15882,8.73341 -3.23823,13.73796 0,0.0981 0,0.19625 -0.0981,0.29438 -0.19625,1.07941 -0.49064,2.06069 -0.6869,3.1401 -0.0981,0.29439 -0.0981,0.49065 -0.19625,0.78503 -0.19626,0.98128 -0.39251,1.96257 -0.58877,2.94385 0,0.19626 -0.0981,0.39251 -0.0981,0.58877 -0.29438,1.17754 -0.49064,2.35508 -0.78503,3.63074 0,0.0981 -0.0981,0.29439 -0.0981,0.39252 -0.19626,1.07941 -0.49064,2.15882 -0.6869,3.33636 -4.90641,23.74703 -9.12593,47.88659 -9.12593,47.88659 0,0 -2.06069,-2.55134 -5.49518,-3.63075 3.23823,-22.27511 -0.6869,-39.34943 -0.6869,-39.34943 0,0 -2.84572,34.63927 -5.00454,37.97563 -3.92513,-0.68689 -6.08395,-0.49064 -9.91095,-0.78502 -4.31765,-0.29439 -7.06524,-0.29439 -10.79411,-0.49064 0.49064,-5.29893 -1.57005,-9.32219 -1.57005,-9.32219 0,0 -1.66818,9.22406 -2.35508,9.32219 -3.23823,0.0981 -6.67272,-0.0981 -6.67272,-0.0981 v 0 c 0,0 -3.43449,0.0981 -6.67272,0.0981 -0.6869,0 -2.35508,-9.32219 -2.35508,-9.32219 0,0 -2.15882,4.02326 -1.57006,9.32219 -3.72887,0.19625 -6.47646,0.19625 -10.7941,0.49064 -3.82701,0.29438 -5.8877,0 -9.91096,0.78502 -2.15882,-3.33636 -5.00454,-37.97563 -5.00454,-37.97563 0,0 -3.92513,16.97619 -0.6869,39.34943 -3.43448,1.17754 -5.49518,3.63075 -5.49518,3.63075 0,0 -4.21951,-24.04143 -9.12593,-47.88659 -0.19625,-1.07941 -0.49064,-2.15882 -0.68689,-3.33636 0,-0.0981 -0.0981,-0.29439 -0.0981,-0.39252 -0.29439,-1.17754 -0.49064,-2.35507 -0.78503,-3.63074 0,-0.19626 -0.0981,-0.39251 -0.0981,-0.58877 -0.19625,-0.98128 -0.39251,-1.96257 -0.58877,-2.94385 -0.0981,-0.29438 -0.0981,-0.49064 -0.19625,-0.78503 -0.19626,-1.07941 -0.49064,-2.15882 -0.6869,-3.1401 0,-0.0981 0,-0.19626 -0.0981,-0.29438 -1.07941,-4.90642 -2.15882,-9.51844 -3.23823,-13.73796 -5.8877,-23.45265 -18.84063,-39.44756 -38.76066,-48.37723 -21.09758,-9.42031 -32.38233,-14.71924 -60.83952,-19.92004 -19.23314,-3.53261 -29.34035,-4.51389 -47.69033,-4.80828 -10.205342,25.41522 -4.710162,49.75103 11.87352,74.77373 7.06523,10.69598 9.32218,20.70506 18.34998,30.71414 1.76631,1.96257 18.25186,6.86898 21.49009,9.81283 3.23823,2.94385 20.70506,45.139 19.33127,58.6807 0.49064,1.86443 0.98128,3.827 1.57005,5.88769 -4.5139,1.27567 -13.5417,3.92513 -22.47137,6.86898 -21.49009,7.16336 -42.19515,17.46683 -41.21387,17.66309 0,0 25.12083,-7.06524 40.03633,-11.67727 11.38288,-3.53261 20.60693,-5.59331 25.51334,-6.47646 2.84572,9.12593 6.67273,19.42939 11.67727,29.04596 -2.15883,0.88316 -4.80829,1.96257 -8.14465,3.43449 -14.52298,6.37834 -35.32617,20.60693 -35.32617,20.60693 0,0 17.17244,-6.77085 37.38686,-13.83608 3.92513,-1.3738 7.16337,-2.45321 9.91096,-3.33636 2.4532,4.02326 5.10267,7.85026 8.04652,11.28475 2.84571,3.33636 6.9671,8.63529 12.8548,14.42485 -1.66818,1.07941 -3.33636,2.25695 -4.5139,3.14011 -4.71016,3.63074 -19.13501,17.27057 -19.13501,17.27057 0,0 14.62111,-8.04652 20.21442,-11.38288 2.74759,-1.66818 5.49518,-3.43449 7.85026,-5.00454 6.37833,5.59331 14.52298,11.28475 25.0227,15.79865 13.34545,5.78957 22.86389,-3.92513 34.83553,-8.53716 12.56042,-4.80828 22.37325,-8.43903 22.37325,-8.43903 l 7.654,-0.78502 7.654,0.78502 c 0,0 9.7147,3.53262 22.37325,8.43903 11.97164,4.61203 21.49008,14.42486 34.83553,8.53716 10.49972,-4.61203 18.64436,-10.30347 25.0227,-15.79865 2.35508,1.57005 5.00454,3.23823 7.85026,5.00454 5.49518,3.43449 20.21442,11.38288 20.21442,11.38288 0,0 -14.42485,-13.63983 -19.13501,-17.27057 -1.17754,-0.88316 -2.84572,-2.0607 -4.5139,-3.14011 5.8877,-5.78956 10.00908,-11.08849 12.8548,-14.42485 2.94385,-3.33636 5.59331,-7.16336 8.04652,-11.28475 2.74759,0.88315 5.98582,1.96256 9.91095,3.33636 20.21443,7.06523 37.38687,13.83608 37.38687,13.83608 0,0 -20.80319,-14.22859 -35.32617,-20.60693 -3.33636,-1.47192 -5.98583,-2.55133 -8.14465,-3.43449 4.90642,-9.61657 8.83155,-19.92003 11.67727,-29.04596 4.90641,0.98128 14.13046,2.94385 25.51334,6.47646 14.9155,4.61203 40.03633,11.67727 40.03633,11.67727 0.98128,-0.19626 -19.72378,-10.49973 -41.21387,-17.66309 -8.92967,-3.04198 -17.95747,-5.59331 -22.47137,-6.86898 0.58877,-2.06069 1.07941,-4.12139 1.57005,-5.88769 -1.37379,-13.5417 16.19117,-55.83498 19.33127,-58.6807 3.23823,-2.94385 19.72378,-7.85026 21.49009,-9.81283 9.0278,-10.10721 11.28475,-20.11629 18.34998,-30.71414 16.97619,-25.12083 22.47137,-49.35851 12.26603,-74.77373 z m 38.1719,-69.76919 0.0981,-0.6869 c -12.75667,-1.27566 -25.61147,-0.58877 -38.27002,1.3738 -12.65854,2.25695 -25.12083,5.98582 -36.69996,11.77539 -11.67727,5.69144 -22.5695,13.24731 -31.5973,22.47137 -4.5139,4.61203 -8.73342,9.42031 -12.65855,14.62111 -3.92513,5.10267 -7.45774,10.49972 -10.49972,16.19116 l 0.49064,0.39251 c 8.92967,-9.12592 17.76122,-18.05559 27.0834,-26.3965 9.32218,-8.24277 18.54624,-16.77993 29.43848,-22.66762 10.7941,-6.18208 22.76575,-10.4016 34.93366,-13.14919 12.36416,-2.84572 25.12083,-4.41577 37.68125,-3.92513 z"
   id="path71"
   style="stroke-width:0.981283" />

</svg>
